<?xml version="1.0" encoding="utf-8"?>
<!-- Generator: Adobe Illustrator 24.0.3, SVG Export Plug-In . SVG Version: 6.00 Build 0)  -->
<svg version="1.1" id="Layer_1" xmlns="http://www.w3.org/2000/svg" xmlns:xlink="http://www.w3.org/1999/xlink" x="0px" y="0px"
	 viewBox="0 0 113 27" style="enable-background:new 0 0 113 27;" xml:space="preserve">
<style type="text/css">
	.st0{fill:#615963;}
	.st1{fill:#0092F9;}
	.st2{fill:#FD983B;}
</style>
<path class="st0" d="M43.6,20.2c-1.1,0-2.2-0.2-3.1-0.7c-0.9-0.5-1.6-1.1-2.1-2c-0.5-0.8-0.8-1.8-0.8-2.9s0.3-2,0.8-2.9
	c0.5-0.8,1.2-1.5,2.1-2c0.9-0.5,1.9-0.7,3.1-0.7c1.1,0,2.1,0.2,3,0.7c0.9,0.5,1.6,1.1,2.1,2c0.5,0.8,0.8,1.8,0.8,2.9s-0.3,2-0.8,2.9
	c-0.5,0.8-1.2,1.5-2.1,2C45.7,19.9,44.7,20.2,43.6,20.2z M43.6,17.6c0.8,0,1.5-0.3,2-0.8c0.5-0.5,0.8-1.3,0.8-2.2S46,13,45.5,12.5
	c-0.5-0.5-1.2-0.8-2-0.8c-0.8,0-1.5,0.3-2,0.8c-0.5,0.5-0.8,1.3-0.8,2.2s0.3,1.6,0.8,2.2C42.1,17.3,42.8,17.6,43.6,17.6z M58.1,9.1
	c1.3,0,2.4,0.4,3.2,1.2c0.8,0.8,1.2,2,1.2,3.6V20h-3.1v-5.7c0-0.9-0.2-1.5-0.6-1.9c-0.4-0.4-0.9-0.6-1.6-0.6c-0.8,0-1.4,0.2-1.9,0.7
	c-0.5,0.5-0.7,1.2-0.7,2.2V20h-3.1V9.2h3v1.3c0.4-0.5,0.9-0.8,1.5-1C56.7,9.2,57.4,9.1,58.1,9.1z M70.2,20.2c-1.1,0-2.2-0.1-3.2-0.4
	c-1-0.3-1.9-0.7-2.5-1.2l1.1-2.4c0.6,0.4,1.3,0.8,2.1,1.1c0.8,0.3,1.7,0.4,2.5,0.4c0.9,0,1.6-0.1,2-0.4c0.4-0.3,0.7-0.6,0.7-1.1
	c0-0.3-0.1-0.6-0.4-0.8c-0.3-0.2-0.6-0.4-1-0.5c-0.4-0.1-0.9-0.3-1.6-0.4c-1.1-0.3-1.9-0.5-2.6-0.8s-1.3-0.7-1.8-1.2
	c-0.5-0.6-0.7-1.3-0.7-2.2c0-0.8,0.2-1.5,0.7-2.2c0.4-0.7,1.1-1.2,2-1.6c0.9-0.4,2-0.6,3.3-0.6c0.9,0,1.8,0.1,2.6,0.3
	c0.9,0.2,1.6,0.5,2.2,0.9l-1,2.5c-1.3-0.7-2.6-1.1-3.9-1.1c-0.9,0-1.6,0.1-2,0.4C68.2,9.1,68,9.5,68,10c0,0.5,0.2,0.8,0.7,1.1
	c0.5,0.2,1.3,0.5,2.3,0.7c1.1,0.3,1.9,0.5,2.6,0.8c0.7,0.3,1.3,0.7,1.7,1.2c0.5,0.5,0.7,1.3,0.7,2.2c0,0.8-0.2,1.5-0.7,2.2
	c-0.4,0.7-1.1,1.2-2,1.6C72.6,20,71.5,20.2,70.2,20.2z M84.5,9.1c1,0,1.9,0.2,2.7,0.7c0.8,0.5,1.5,1.1,1.9,1.9
	c0.5,0.8,0.7,1.8,0.7,2.9s-0.2,2.1-0.7,2.9c-0.5,0.8-1.1,1.5-1.9,1.9c-0.8,0.5-1.7,0.7-2.7,0.7c-1.4,0-2.5-0.4-3.2-1.3v5h-3.1V9.2h3
	v1.2C81.9,9.5,83,9.1,84.5,9.1z M83.9,17.6c0.8,0,1.5-0.3,2-0.8c0.5-0.5,0.8-1.3,0.8-2.2s-0.3-1.6-0.8-2.2c-0.5-0.5-1.2-0.8-2-0.8
	c-0.8,0-1.5,0.3-2,0.8c-0.5,0.5-0.8,1.3-0.8,2.2s0.3,1.6,0.8,2.2C82.5,17.3,83.1,17.6,83.9,17.6z M97.1,20.2c-1.1,0-2.2-0.2-3.1-0.7
	c-0.9-0.5-1.6-1.1-2.1-2c-0.5-0.8-0.8-1.8-0.8-2.9s0.3-2,0.8-2.9c0.5-0.8,1.2-1.5,2.1-2c0.9-0.5,1.9-0.7,3.1-0.7s2.1,0.2,3,0.7
	c0.9,0.5,1.6,1.1,2.1,2c0.5,0.8,0.8,1.8,0.8,2.9s-0.3,2-0.8,2.9c-0.5,0.8-1.2,1.5-2.1,2C99.2,19.9,98.2,20.2,97.1,20.2z M97.1,17.6
	c0.8,0,1.5-0.3,2-0.8c0.5-0.5,0.8-1.3,0.8-2.2S99.5,13,99,12.5c-0.5-0.5-1.2-0.8-2-0.8c-0.8,0-1.5,0.3-2,0.8
	c-0.5,0.5-0.8,1.3-0.8,2.2s0.3,1.6,0.8,2.2C95.6,17.3,96.3,17.6,97.1,17.6z M112,19.5c-0.3,0.2-0.7,0.4-1.1,0.5
	c-0.4,0.1-0.9,0.2-1.4,0.2c-1.3,0-2.3-0.3-3-1c-0.7-0.7-1-1.6-1-2.9v-4.4h-1.7V9.5h1.7V6.9h3.1v2.6h2.7v2.4h-2.7v4.4
	c0,0.5,0.1,0.8,0.3,1.1c0.2,0.2,0.6,0.4,1,0.4c0.5,0,0.9-0.1,1.3-0.4L112,19.5z"/>
<path class="st1" d="M1.2,24.7c0,0.6,0.6,1.1,1.3,1.1h16.2c0.7,0,1.3-0.5,1.3-1.1v-1.1H1.2V24.7z"/>
<path class="st1" d="M10.6,10.1c-4.7,0-9.4,2.3-9.4,6.8H20C20,12.4,15.3,10.1,10.6,10.1z M4.5,14.6c1.4-1.7,4.3-2.3,6.1-2.3
	s4.7,0.5,6.1,2.3H4.5z"/>
<path class="st1" d="M20,19.1H1.2v2.2H20V19.1z"/>
<path class="st2" d="M22.5,5.6V1.1H20v4.5h-6.2L14,7.9H26l-1.8,15.8h-1.7v2.2h2.1c1.1,0,1.9-0.7,2-1.7l2.1-18.6H22.5z"/>
</svg>
